<svg width="16" height="16" viewBox="0 0 16 16" fill="none" xmlns="http://www.w3.org/2000/svg">
<path d="M11 1.5C12.1049 1.50009 13.165 1.93948 13.9463 2.7207C14.7275 3.50207 15.166 4.56208 15.166 5.66699C15.1659 7.42041 14.0087 8.71825 13.0166 9.69043L13.0156 9.68945L8.35352 14.3535C8.25984 14.4471 8.13241 14.4999 8 14.5C7.86759 14.4999 7.74016 14.4471 7.64648 14.3535L2.98535 9.69238C1.98268 8.72308 0.833149 7.42646 0.833008 5.66699C0.833008 4.562 1.27241 3.50209 2.05371 2.7207C2.83504 1.93938 3.89505 1.50009 5 1.5C5.63652 1.50003 6.20843 1.59081 6.76465 1.83301C7.19371 2.01991 7.59484 2.2896 8 2.64746C8.40506 2.28971 8.80639 2.01988 9.23535 1.83301C9.79154 1.59084 10.3635 1.50003 11 1.5Z" fill="#1A1A1A"/>
</svg>
